<?xml version="1.0" encoding="UTF-8" standalone="no"?>
<!-- Created with Inkscape (http://www.inkscape.org/) -->

<svg
   version="1.1"
   width="78.378853"
   height="70.467094"
   viewBox="0 0 78.378853 70.467096"
   xmlns="http://www.w3.org/2000/svg">
  <defs/>
  <g
     transform="translate(-9.0455526,-20.22058)">
    <path
       fill="currentColor"
       d="m 39.383505,90.677587 c -1.18757,0.0547 -2.74776,-0.55158 -3.081,-1.770883 -0.67902,-1.922863 -0.13803,-4.069824 -0.31099,-6.085643 -0.0849,-2.403407 0.17097,-4.920312 -0.12633,-7.252986 -0.8702,-1.128286 -1.7069,-2.219042 -0.1787,-0.660709 0.99238,0.837463 0.27592,2.436928 0.54188,3.598318 0.0811,3.33239 0.1621,6.664779 0.24315,9.997169 1.226,0.616955 1.07032,1.843239 2.08,1.45834 0.95885,0.942099 0.87999,-0.371535 1.95324,-0.543463 -0.78809,1.692579 0.99426,-0.603969 1.51131,-0.80733 1.35805,-0.397569 2.38194,-1.765899 3.61175,-2.536016 0.93788,-1.608459 0.52089,-3.781781 0.62681,-5.635288 0.0456,-18.859045 0.0912,-37.718091 0.13685,-56.577137 -0.84456,-1.255816 -1.88949,-2.539144 -3.29764,-3.091558 -2.10611,0.122075 -4.32633,-0.244917 -6.36026,0.186504 -2.05228,1.005181 -4.20237,1.864826 -5.75459,3.614081 -0.82159,1.400017 -2.18458,0.559037 -3.40724,0.298904 -1.08522,-0.332464 -2.3827,0.06071 -3.38065,0.428277 -0.75562,1.037484 -2.35048,1.74165 -1.95962,3.23449 -1.53159,1.497479 -3.69059,2.519586 -4.300386,4.715491 -0.716266,1.288454 -1.1245,2.981983 -2.073176,3.995594 -1.575053,0.116084 -3.139129,0.652997 -4.252154,1.765519 -0.716406,1.131485 -1.200108,2.316809 -0.934769,3.675432 -0.450849,1.399203 1.345916,2.135126 0.255904,3.3874 -0.699778,1.70951 -1.6335165,3.372234 -1.3151545,5.285345 -0.0039,1.928504 -0.263084,3.903826 0.7486665,5.646134 1.089249,3.016921 3.524737,5.37607 6.295066,6.900898 0.928174,0.41958 0.206381,3.158903 0.150478,0.852188 -0.77947,-1.21349 -2.539181,-1.707344 -3.510279,-2.877452 -1.37924,-1.215394 -2.645094,-2.744245 -3.3060245,-4.444052 -0.480511,-2.064717 -1.262435,-4.103464 -0.806205,-6.248889 -0.0304,-1.756882 0.320126,-3.419557 1.1982775,-4.951739 0.787489,-1.329455 -0.6748855,-2.742771 -0.308469,-4.196321 -0.2468925,-1.498228 0.925751,-2.658772 1.4382,-3.976366 1.658256,-0.714472 3.643871,-0.844064 4.96,-2.169803 0.01103,-1.419382 0.955658,-2.71388 1.62155,-3.928862 1.043265,-1.204056 1.827725,-2.742748 3.498445,-3.135503 -0.12386,-1.234533 0.69718,-2.412505 1.39178,-3.301996 1.48119,-0.594581 2.89987,-1.637379 4.54861,-1.03063 1.18734,-0.0151 2.67243,0.915353 3.46614,-0.34971 1.27515,-1.339815 2.70038,-2.452779 4.47984,-3.03026 1.20059,-0.69189 2.45989,-1.081265 3.8484,-0.80488 1.99676,0.190063 4.15501,-0.250988 5.8778,1.009846 0.67325,0.954604 1.4706,2.166535 1.67459,3.348979 -0.0945,20.327115 -0.042,40.655699 -0.48721,60.979306 -2.01278,1.729863 -3.90919,3.809734 -6.22671,5.039352 -0.26039,-0.0034 -0.52079,-0.0067 -0.78118,-0.01009 z m 0.43052,-2.867187 c -1.46816,-0.269056 -1.3968,-1.705203 -1.30995,-2.917913 -0.0375,-3.810339 -0.075,-7.620676 -0.11257,-11.431014 -0.83419,-0.889623 -1.5429,-2.069362 -2.9428,-1.651073 -2.39522,-0.05898 -4.79598,-0.590733 -6.86527,-1.839661 -1.16688,-0.573138 -2.76259,-1.140565 -3.11821,-2.437193 0.21047,-1.279197 1.18863,-2.633133 0.15419,-3.791115 -0.35105,-1.459791 -1.71359,-2.033615 -2.84255,-2.812031 -1.28629,-0.05528 -2.57445,-0.117654 -3.61062,0.78258 -1.139555,1.222719 -2.150322,-0.395313 -3.21032,-0.927398 -1.364571,-0.87945 -2.150708,-2.445619 -3.062509,-3.736709 -0.669821,-1.810465 -1.098192,-3.65696 -0.901902,-5.59667 -0.22886,-1.721606 0.807769,-3.214223 1.283527,-4.808329 1.458859,-0.142116 3.125174,0.358543 4.448438,-0.203695 1.249256,-0.689746 2.040076,-1.814942 2.748036,-3.018839 2.66667,-0.11859 5.33333,-0.237179 8,-0.355767 0.43825,1.097099 1.46149,2.45145 2.78445,2.184821 1.38424,0.144526 3.08943,-0.506586 3.48061,-1.942794 0.72942,-1.215602 0.17484,-2.573472 -0.72015,-3.524048 0.87649,-0.894137 1.54357,-2.230628 2.54865,-2.853152 1.2474,0.324108 2.04943,-0.638366 2.94644,-1.326451 0.0279,-1.172855 0.22657,-2.763283 -1.23389,-3.134935 -0.8585,-0.629014 -2.48691,-0.314253 -3.11738,0.380479 -1.05488,1.079094 0.0566,2.595934 -0.2974,3.770905 -1.01511,0.934002 -1.58315,2.796516 -3.24373,2.38997 -1.40303,-0.376514 -2.11017,0.691933 -2.86028,1.671125 -0.85142,0.792457 -2.3735,0.229686 -3.48752,0.491484 -1.63896,-0.02754 -3.27791,-0.05507 -4.91687,-0.08259 -0.18329,-1.317295 -1.18978,-2.181213 -1.98679,-3.160502 1.04607,-1.78122 1.73642,-3.856326 3.01073,-5.44898 1.20918,-1.661505 1.61951,-0.178624 2.73327,0.583496 1.14335,0.810271 2.72792,0.881354 3.99989,0.459514 1.13519,-0.601112 2.34093,-1.130131 2.78652,-2.435846 1.01444,-1.212414 -0.75098,-3.339729 0.97328,-4.127121 1.56144,-1.54315 3.43324,-2.598305 5.45538,-3.417099 1.61814,-0.463443 3.42722,-0.07641 5.11864,-0.213438 0.8441,0.968186 1.93405,1.845121 1.54605,3.270638 0,8.309012 0,16.618025 0,24.927038 -0.52786,1.483513 -1.90979,1.316236 -3.22527,1.277393 -3.59464,0.0544 -7.18927,0.108793 -10.78391,0.16319 -0.73723,-1.017091 -1.29306,-2.293344 -2.73108,-2.30928 -1.10006,-0.508845 -2.45795,0.22187 -3.25786,0.948586 -1.08058,0.947396 -0.78134,2.329958 -0.80188,3.611669 0.97118,0.815962 1.66108,2.311012 3.1526,1.870769 1.56835,0.441945 2.31778,-1.177976 3.38911,-1.987418 1.15869,-0.574708 2.73617,-0.09501 4.06054,-0.252582 3.39925,0 6.7985,0 10.19775,0 0.14584,9.505017 0.22942,19.011699 0.35139,28.517354 -0.33166,1.899096 -2.44241,2.591571 -3.6674,3.884791 -0.29551,0.145043 -0.49997,0.607112 -0.86138,0.557841 z m -4.19634,-21.324932 c 1.24358,0.09233 1.99785,-0.61332 2.72201,-1.57997 0.25565,-0.92025 0.57784,-2.595904 -0.24889,-3.336348 -0.70591,-1.045754 -1.83418,-1.203034 -3.00541,-1.269949 -1.3007,-0.292202 -1.89641,1.500749 -2.88838,2.121701 -0.0845,1.082356 0.0295,2.602142 1.08587,3.331909 0.47204,0.732567 1.53598,0.921922 2.3348,0.732657 z m 16.69383,14.850691 c -2.57501,0.108132 1.05274,-0.508514 0.90929,0 -0.30309,0 -0.60619,0 -0.90929,0 z m -1.49677,-0.255936 c -0.95291,-0.302071 -1.81709,-1.594281 -1.88067,-2.690219 -0.45476,-0.625561 0.19965,-3.619513 0.12048,-1.737314 -0.1256,1.70361 0.67432,3.501072 2.137,4.417358 l -0.21063,0.0057 z m 2.96432,0.01018 c -0.0791,-0.365818 1.96007,-1.382651 2.67691,-1.993082 1.10245,-0.87645 2.43503,-1.696731 3.28625,-2.76046 -4.5e-4,-1.269298 0.75389,-2.537808 2.09268,-2.58752 2.37628,0.07743 0.62917,0.02736 -0.64854,0.610861 -1.4209,0.319367 -0.51208,2.073994 -1.87215,2.723796 -1.3602,1.789145 -3.52226,2.665163 -5.27578,4.006409 l -0.21071,-3e-6 z m -0.86974,-2.24 c -1.08882,-0.359237 -1.88718,-1.541105 -1.55781,-2.75495 -0.0961,-8.806957 0.12405,-17.609313 0.42341,-26.410517 4.82126,-2.300615 9.67891,-4.522729 14.54416,-6.728426 1.0773,0.520662 2.09963,1.415455 3.3391,0.832481 1.26487,0.04052 1.67007,-1.391677 2.49333,-2.107692 0.006,-1.28166 0.23093,-2.632177 -0.84364,-3.572956 -1.06074,-0.59058 -2.44721,-1.204737 -3.63613,-0.48521 -1.15084,0.906873 -2.17174,-1.046872 -3.29622,-0.155025 -0.78263,0.632224 2.09182,1.304685 1.36956,2.617648 0.009,1.693966 -2.26167,1.672714 -3.38673,2.405168 -3.50185,1.447341 -6.99768,2.907849 -10.35106,4.679479 -0.76557,-0.540433 -0.12555,-2.48645 -0.33598,-3.582021 0,-6.182404 0,-12.364808 0,-18.547212 0.9707,-0.708534 1.58969,-2.372628 3.0057,-1.871323 1.70327,0.154343 3.4846,0.03372 4.92234,1.123502 1.67213,0.855992 3.34427,1.711985 5.0164,2.567977 -0.004,1.392888 0.24971,3.048056 1.55612,3.765621 1.80423,1.218597 3.8755,-0.116777 5.85585,0.256794 1.75241,0.316268 1.31487,-1.508876 0.1718,-2.103285 -0.0241,-1.223988 0.0586,-2.500027 -0.92215,-3.446402 -1.31294,-1.379612 -3.60936,-1.644886 -5.23415,-0.59392 -1.54517,-0.437082 -3.0526,-1.684182 -4.58317,-2.43473 -1.54391,-0.927091 -3.38049,-1.447984 -5.12357,-1.741524 -1.7858,0.265793 -3.85887,-0.310978 -5.24698,1.121236 -1.19805,0.578157 -1.73599,2.000198 -1.97817,3.208412 0,13.647846 0,27.295693 0,40.943539 -0.58943,-1.149859 -0.11222,-2.735859 -0.27701,-4.059354 -0.0579,-12.495771 -0.11575,-24.991541 -0.17363,-37.487312 0.66286,-1.371476 1.20388,-2.845321 2.66316,-3.547577 1.20829,-0.659955 2.81516,-0.09887 4.18233,-0.27207 1.7476,0.03543 3.57756,-0.271724 5.05892,0.871044 1.66494,0.752164 3.22458,1.679122 4.66463,2.804572 1.61795,0.0083 3.35379,-0.568395 4.89534,-0.180876 1.35325,0.464596 2.28185,1.289787 2.44344,2.766312 0.45349,1.05777 0.3818,2.621887 1.84379,2.707333 1.58535,0.97377 2.95597,2.327024 4.45909,3.446109 0.33859,0.829702 1.8922,1.002901 1.98204,2.457793 1.30595,2.450633 2.48781,5.106696 2.17801,7.949678 0.47108,0.950377 2.50794,0.471857 2.98435,1.65206 0.71003,1.084965 1.68321,2.090738 1.33604,3.493837 0.12143,1.296639 0.0496,2.5288 -1.00646,3.43272 -0.69822,1.179298 -2.67749,1.034479 -2.04412,2.840259 0.0785,1.504558 0.0446,2.982628 -0.85947,4.255664 0.0528,-0.08647 0.53931,-2.110672 0.43351,-2.969244 0.32566,-1.149337 -0.43529,-2.966764 0.92385,-3.480682 1.36539,-0.409082 1.74727,-1.648721 2.14629,-2.873893 0.66938,-1.130702 -0.16361,-2.472083 -0.55815,-3.548418 -0.94519,-0.973168 -1.80526,-2.101851 -3.28923,-2.090655 -0.74402,-0.694486 -0.29391,-2.430704 -0.57882,-3.525716 -0.32124,-1.603881 -1.11095,-3.15872 -1.78103,-4.643405 -1.81332,-2.284676 -4.09623,-4.168753 -6.60366,-5.648027 -0.99406,0.826612 -2.5099,1.662867 -0.6097,2.436055 2.50912,1.963797 5.3175,4.00271 6.3743,7.131612 0.045,1.474924 0.55816,3.121804 0.31153,4.489645 -1.00666,1.096518 -2.59459,1.877068 -2.51007,3.566734 -0.3862,1.211321 0.21278,2.543505 0.70407,3.607636 0.92423,0.664823 1.64946,1.875249 2.94886,1.511503 1.34562,0.900747 0.30849,2.349845 0.14061,3.598905 -0.18044,2.096178 -1.78875,3.535972 -2.87379,5.216313 -1.04076,0.827574 -2.09747,0.994605 -3.17886,0.140971 -0.99941,-0.674007 -2.49697,-0.137908 -3.14625,0.810351 -0.65307,1.262843 -1.87681,1.211711 -3.121,1.11346 -1.00033,-0.363081 -2.40291,1.320899 -1.61164,1.92 1.29661,0.121271 2.85352,-0.239231 3.99117,0.176244 1.17428,1.070193 0.87732,2.031906 -0.58048,2.543441 -3.01024,1.630854 -6.22204,2.946397 -9.6746,3.171554 -1.17694,0.06324 -2.50157,0.559861 -3.27241,1.366507 -0.38237,1.330065 -0.37547,2.915173 -1.83227,3.54127 -1.10743,0.711624 -2.08281,1.898287 -3.28469,2.320983 z m 7.69214,-11.344985 c 1.68365,0.312318 2.09374,-2.187367 3.74205,-1.775015 1.25405,-0.742087 0.98226,-2.525068 -0.6559,-1.92 -0.73015,-0.89771 -1.12092,-2.367818 -2.66771,-2.375845 -1.4806,-0.603205 -2.9622,0.419868 -3.90839,1.527406 -0.0474,1.521704 -0.24203,3.59251 1.52805,4.205437 0.62877,0.508326 1.19692,0.531999 1.9619,0.338017 z m 8.72685,-9.135015 c 1.46058,0.23297 2.64029,-0.97543 3.4632,-2.042323 0.0379,-1.234565 0.22756,-2.53201 -1.04295,-3.224624 -0.68912,-1.123074 -1.96508,-1.464566 -3.15042,-0.958326 -1.2657,0.135905 -1.61985,1.51001 -2.43209,2.065273 -2.63902,-0.05847 -5.32874,0.116641 -7.93617,-0.08736 -1.02679,-0.797142 -2.05357,-0.578504 -3.08036,0.09277 -0.19862,1.586048 0.58242,2.09116 2.0981,1.785731 2.92505,0.04804 5.85009,0.09608 8.77514,0.144119 1.08826,0.776432 1.75504,2.598086 3.30555,2.22474 z M 59.292555,37.248811 c 1.18228,0.461439 2.04882,-1.202493 3.09249,-0.263121 1.00831,0.989664 2.63167,-1.028751 0.8272,-1.295961 -1.51493,-0.578091 0.12331,-2.702584 -1.21035,-3.522597 -0.60577,-1.306435 -1.96816,-1.18174 -3.19319,-1.316863 -1.04554,-0.06759 -2.23272,1.114355 -2.66037,2.007045 -0.52082,1.407036 0.0749,3.055389 1.37576,3.805683 0.50188,0.611339 1.01819,0.655841 1.76846,0.585814 z m -25.88771,36.769691 c -0.57444,0.249411 -3.50596,-0.729525 -2.06457,-0.500685 0.71778,0.127593 3.53233,0.199104 2.73668,0.520292 -0.22404,-0.0065 -0.44807,-0.01307 -0.67211,-0.01961 z m 30.88,-0.313365 c -1.68888,-0.15185 1.52764,-0.38222 0.19228,0.0079 z m 1.24892,-0.31351 c -1.17584,-0.06039 1.89979,-0.766383 2.54848,-1.103836 1.5241,-0.433646 2.8241,-1.374394 4.22927,-2.077139 -1.64919,1.746279 -4.10328,2.17739 -6.19551,3.19975 -0.19408,-0.0063 -0.38816,-0.01252 -0.58224,-0.01877 z m -36.18225,-0.321511 c -1.4995,-0.185914 -2.26785,-1.330573 -0.32207,-0.433044 0.28073,-0.03039 0.99194,0.485677 0.32207,0.433044 z M 25.653685,71.1704 c -1.17315,-0.554241 -2.07075,-2.083447 -3.55745,-1.440423 -2.39209,0.356268 -0.0728,-0.155647 0.96985,-0.432315 0.92806,0.201005 1.97589,1.144673 2.68546,1.756258 v 0.11648 z m 47.40415,-1.251271 c -1.56197,0.712447 1.03737,-1.106407 1.47379,-1.416501 -0.39583,0.443998 -0.78513,1.205199 -1.47379,1.416501 z M 19.370395,69.2504 c -2.080112,-0.851402 1.1457,-0.459983 0,0 z m 55.54792,-0.64 c -0.48147,-0.076 2.1577,-1.928251 2.05192,-1.923672 -0.70279,0.557934 -1.1841,1.757277 -2.05192,1.923672 z m -56.812565,-0.32 c -1.60457,-1.067407 0.490005,-0.915066 0.07506,0 z m 59.191405,-2.320007 c -0.8594,1.323018 0.0434,-1.53753 1.07178,-1.270849 1.71487,-0.758556 2.68557,-2.531738 3.97704,-3.820586 1.1268,-1.859526 0.25526,-0.151504 -0.22135,0.851442 -1.41725,1.340238 -2.59909,3.001489 -4.50164,3.679986 -0.10861,0.186669 -0.21722,0.373338 -0.32583,0.560007 z" />
  </g>
</svg>
